<svg width="66" height="34" viewBox="0 0 66 34" fill="none" xmlns="http://www.w3.org/2000/svg">
<rect x="0.650391" width="65" height="34" rx="4" fill="white" fill-opacity="0.08"/>
<path d="M20.3747 12.8713L16.6504 21.1181H21.1089L21.6617 19.8032H22.9251L23.4778 21.1181H28.3854V20.1145L28.8227 21.1181H31.3613L31.7986 20.0933V21.1181H42.005L43.2461 19.8374L44.4082 21.1181L49.6504 21.1287L45.9143 17.0177L49.6504 12.8713H44.4895L43.2814 14.1283L42.1559 12.8713H31.0526L30.0992 14.9999L29.1233 12.8713H24.6741V13.8407L24.1792 12.8713H20.3747ZM21.2374 14.0423H23.4107L25.881 19.6346V14.0423H28.2618L30.1698 18.0519L31.9283 14.0423H34.2971V19.96H32.8558L32.8441 15.323L30.7426 19.96H29.4532L27.34 15.323V19.96H24.3747L23.8126 18.6333H20.7754L20.2144 19.9588H18.6257L21.2374 14.0423ZM35.6159 14.0423H41.477L43.2695 15.9799L45.1199 14.0423H46.9126L44.1889 17.0165L46.9126 19.9565H45.0386L43.2461 17.9964L41.3863 19.9565H35.6159V14.0423ZM22.2947 15.0436L21.294 17.4069H23.2941L22.2947 15.0436ZM37.0633 15.2676V16.3479H40.2607V17.5519H37.0633V18.7312H40.6496L42.3161 16.9942L40.7204 15.2666H37.0633V15.2676Z" fill="#F2F6F9"/>
<rect x="1.15039" y="0.5" width="64" height="33" rx="3.5" stroke="white" stroke-opacity="0.04"/>
</svg>
