<svg width="61" height="34" viewBox="0 0 61 34" fill="none" xmlns="http://www.w3.org/2000/svg">
<rect x="0.0556641" width="60.3273" height="34" rx="4" fill="white" fill-opacity="0.08"/>
<path d="M16.0557 16.1806C16.0667 16.0487 16.0734 15.9158 16.09 15.7851C16.1942 14.994 16.5143 14.3248 17.1902 13.8617C17.5613 13.6069 17.9768 13.4806 18.4288 13.4828C18.6891 13.484 18.9329 13.5615 19.1733 13.6524C19.3384 13.7144 19.5035 13.7775 19.6696 13.8385C19.8369 13.8994 20.0042 13.8994 20.1726 13.8374C20.4086 13.7498 20.6446 13.6601 20.8828 13.5781C21.1443 13.4873 21.4135 13.4319 21.6904 13.4485C22.3873 13.4917 22.9756 13.7498 23.3977 14.3282C23.4066 14.3404 23.4143 14.3525 23.4232 14.3647C23.4254 14.3681 23.4265 14.3714 23.4287 14.378C22.7585 14.8389 22.3729 15.456 22.4272 16.2914C22.4815 17.1234 22.9324 17.6906 23.6714 18.0607C23.6426 18.1449 23.6149 18.2313 23.5816 18.3166C23.3346 18.9647 22.9667 19.5397 22.5092 20.0571C22.3264 20.2643 22.107 20.4272 21.8323 20.4959C21.5409 20.569 21.2628 20.5158 20.9902 20.405C20.8218 20.3363 20.6546 20.2599 20.4795 20.2133C20.0796 20.1059 19.6885 20.1557 19.3062 20.313C19.1334 20.3839 18.9584 20.456 18.7778 20.5047C18.3944 20.6089 18.0632 20.4881 17.7707 20.2355C17.5037 20.0062 17.2987 19.7236 17.0982 19.4378C16.6285 18.7686 16.3249 18.0274 16.1598 17.2287C16.1066 16.9683 16.0723 16.7057 16.0645 16.4398C16.0634 16.4121 16.0579 16.3855 16.0557 16.3578C16.0557 16.2991 16.0557 16.2404 16.0557 16.1806Z" fill="#F2F6F9"/>
<path d="M21.7272 11.1883C21.7449 11.4221 21.7283 11.6525 21.6596 11.8774C21.4657 12.52 21.0824 12.9975 20.4487 13.2523C20.257 13.3299 20.0565 13.3631 19.8371 13.3432C19.8371 13.2423 19.8272 13.1404 19.8382 13.0407C19.8981 12.5089 20.1352 12.0646 20.5296 11.7079C20.8365 11.432 21.1976 11.2592 21.6087 11.1994C21.6186 11.1983 21.6286 11.1927 21.6397 11.1883C21.6685 11.1883 21.6984 11.1883 21.7272 11.1883Z" fill="#F2F6F9"/>
<path d="M26.1611 11.8423C26.1855 11.8423 26.2054 11.8423 26.2254 11.8423C27.2889 11.8423 28.3514 11.8401 29.415 11.8434C29.9889 11.8457 30.5295 11.9764 31.017 12.2888C31.5643 12.64 31.9255 13.1341 32.105 13.7568C32.3066 14.4559 32.2933 15.155 32.0186 15.8319C31.6718 16.6883 31.0248 17.2057 30.1351 17.4284C29.8803 17.4926 29.62 17.5181 29.3574 17.5181C28.7636 17.517 28.1686 17.5181 27.5748 17.5181C27.5526 17.5181 27.5305 17.5181 27.5028 17.5181C27.5028 18.4997 27.5028 19.478 27.5028 20.4607C27.053 20.4607 26.6098 20.4607 26.1622 20.4607C26.1611 17.5901 26.1611 14.7207 26.1611 11.8423ZM27.5005 16.3903C27.5205 16.3914 27.5349 16.3936 27.5493 16.3936C28.049 16.3936 28.5497 16.3936 29.0494 16.3936C29.2843 16.3936 29.5169 16.3681 29.7429 16.3016C30.2648 16.1476 30.6248 15.8219 30.781 15.2934C30.8974 14.9012 30.8974 14.5035 30.7932 14.1091C30.6835 13.6947 30.4387 13.3812 30.052 13.1851C29.7917 13.0533 29.5114 12.9857 29.2222 12.9813C28.665 12.9713 28.1077 12.9746 27.5504 12.9735C27.5349 12.9735 27.5183 12.9757 27.5005 12.9779C27.5005 14.1157 27.5005 15.2502 27.5005 16.3903Z" fill="#F2F6F9"/>
<path d="M36.6418 16.7354C36.6296 16.4894 36.6374 16.2457 36.6019 16.0086C36.5498 15.6585 36.3393 15.4136 36.0059 15.294C35.5671 15.1367 35.1229 15.13 34.6908 15.3195C34.3795 15.4557 34.1734 15.6906 34.0925 16.0274C34.0892 16.0407 34.0681 16.0595 34.0548 16.0607C33.6693 16.0618 33.2837 16.0618 32.8971 16.0618C32.8916 16.0618 32.8871 16.0584 32.8783 16.0562C32.886 15.8823 32.9159 15.7128 32.9735 15.5488C33.1442 15.068 33.4754 14.7267 33.9152 14.4841C34.282 14.2814 34.6786 14.1772 35.0952 14.1462C35.5993 14.1085 36.0934 14.1517 36.5709 14.3246C36.973 14.4708 37.3176 14.699 37.5713 15.0502C37.7796 15.3383 37.8871 15.664 37.9125 16.0163C37.9192 16.1083 37.9192 16.2002 37.9192 16.2933C37.9192 17.6582 37.9192 19.0232 37.9192 20.3892C37.9192 20.4147 37.9192 20.4402 37.9192 20.4679C37.5037 20.4679 37.0938 20.4679 36.6772 20.4679C36.6772 20.1255 36.6772 19.7843 36.6772 19.442C36.6728 19.4397 36.6673 19.4375 36.6628 19.4364C36.654 19.4475 36.6418 19.4575 36.6351 19.4697C36.3172 20.0214 35.8275 20.3405 35.2181 20.4767C34.6598 20.602 34.1091 20.5554 33.5873 20.3095C33.0145 20.0391 32.67 19.586 32.5813 18.9556C32.5248 18.5534 32.5736 18.1646 32.7885 17.8089C32.9658 17.5175 33.2228 17.317 33.5264 17.1697C33.8255 17.0245 34.1435 16.9337 34.4725 16.8971C34.8514 16.855 35.2325 16.8329 35.6137 16.8063C35.9338 16.7841 36.254 16.7675 36.5753 16.7476C36.593 16.7442 36.6086 16.7409 36.6418 16.7354ZM36.6318 17.6438C36.5875 17.6472 36.5532 17.6516 36.5177 17.6538C36.0003 17.6871 35.4829 17.7181 34.9666 17.7557C34.7473 17.7724 34.5346 17.8255 34.3351 17.923C33.9086 18.1324 33.8011 18.5246 33.9086 18.8869C33.9895 19.1595 34.19 19.3279 34.4504 19.4132C35.0021 19.5926 35.5361 19.5406 36.0313 19.2292C36.3238 19.0453 36.5133 18.7772 36.5941 18.4393C36.6562 18.1779 36.6218 17.9131 36.6318 17.6438Z" fill="#F2F6F9"/>
<path d="M38.4424 14.2128C38.4656 14.2128 38.4845 14.2128 38.5022 14.2128C38.9287 14.2128 39.3553 14.214 39.7807 14.2117C39.8283 14.2117 39.845 14.2272 39.8594 14.2716C40.3723 15.9323 40.8864 17.5919 41.4016 19.2527C41.4071 19.2704 41.4137 19.2892 41.4204 19.307C41.4259 19.307 41.4304 19.3081 41.4359 19.3081C41.4437 19.2915 41.4536 19.2759 41.4592 19.2593C41.6187 18.743 41.7782 18.2268 41.9389 17.7094C42.2934 16.5616 42.6491 15.4149 43.0036 14.2671C43.0169 14.225 43.0346 14.2117 43.08 14.2117C43.4933 14.214 43.9065 14.2128 44.3198 14.2128C44.3386 14.2128 44.3563 14.2128 44.3829 14.2128C44.3674 14.2572 44.3541 14.297 44.3408 14.3358C43.5653 16.5084 42.7909 18.681 42.0153 20.8536C41.8824 21.2259 41.7251 21.5859 41.5046 21.9161C41.1678 22.4213 40.698 22.7049 40.0965 22.7803C39.7707 22.8212 39.445 22.8201 39.1193 22.7891C39.0905 22.7869 39.065 22.7858 39.065 22.7437C39.0661 22.4169 39.0661 22.0911 39.0672 21.7643C39.0672 21.761 39.0694 21.7577 39.0728 21.7466C39.116 21.7499 39.1603 21.7532 39.2057 21.7554C39.3996 21.7665 39.5924 21.7743 39.784 21.7344C40.0665 21.6757 40.2726 21.5128 40.4166 21.2658C40.5252 21.0796 40.5773 20.8713 40.6526 20.6719C40.7003 20.5456 40.6914 20.4359 40.6449 20.3085C39.9148 18.2999 39.1891 16.289 38.4623 14.2793C38.4545 14.2605 38.4501 14.2394 38.4424 14.2128Z" fill="#F2F6F9"/>
<rect x="0.555664" y="0.5" width="59.3273" height="33" rx="3.5" stroke="white" stroke-opacity="0.04"/>
</svg>
