<svg width="50" height="34" viewBox="0 0 50 34" fill="none" xmlns="http://www.w3.org/2000/svg">
<rect x="0.650391" width="49.3497" height="34" rx="4" fill="white" fill-opacity="0.08"/>
<path fill-rule="evenodd" clip-rule="evenodd" d="M23.8487 24.2383H26.483C30.5949 24.2383 33.8714 21.0285 34.0001 17.0634V17.0005C33.9358 12.9724 30.5949 9.69965 26.483 9.76258H23.5281C19.6092 9.88854 16.5256 13.1612 16.6543 17.0634C16.6543 20.9656 19.8655 24.1754 23.8487 24.2383ZM17.9388 17.0011C17.9388 13.7283 20.7007 11.022 24.0416 11.022C27.3826 11.022 30.1445 13.7283 30.1445 17.0011C30.1445 20.2738 27.3826 22.9801 24.0416 22.9801C20.7007 22.9801 17.9388 20.2738 17.9388 17.0011ZM25.0055 21.0289V13.0358C27.2539 13.6022 28.6671 15.8051 28.0892 18.0079C27.7043 19.5184 26.5473 20.6512 25.0055 21.0289ZM20.0585 15.9939C19.4806 18.1966 20.8294 20.4625 23.0778 21.0289V13.0358C21.6003 13.4134 20.4434 14.5463 20.0585 15.9939Z" fill="#1B79BE"/>
<rect x="1.15039" y="0.5" width="48.3497" height="33" rx="3.5" stroke="white" stroke-opacity="0.04"/>
</svg>
