<svg width="58" height="34" viewBox="0 0 58 34" fill="none" xmlns="http://www.w3.org/2000/svg">
<rect x="0.165039" width="57.4849" height="34" rx="4" fill="white" fill-opacity="0.08"/>
<path fill-rule="evenodd" clip-rule="evenodd" d="M33.9204 24.6553C38.1892 24.6553 41.6489 21.2269 41.6489 16.9978C41.6489 12.7686 38.1892 9.34012 33.9204 9.34012C32.006 9.34012 30.2543 10.0298 28.9043 11.1719C27.555 10.0327 25.8056 9.34508 23.8939 9.34508C19.6254 9.34508 16.165 12.7735 16.165 17.0027C16.165 21.2319 19.6254 24.6603 23.8939 24.6603C25.8083 24.6603 27.5601 23.9707 28.9102 22.8286C30.2593 23.9677 32.0087 24.6553 33.9204 24.6553Z" fill="#ED0006"/>
<path fill-rule="evenodd" clip-rule="evenodd" d="M28.9151 22.8207C30.5774 21.416 31.6314 19.3258 31.6314 16.9917C31.6314 14.6582 30.578 12.5684 28.9165 11.1638C27.2542 12.5684 26.2002 14.6586 26.2002 16.9929C26.2002 19.3264 27.2537 21.416 28.9151 22.8207Z" fill="#FF603C"/>
<path fill-rule="evenodd" clip-rule="evenodd" d="M28.9072 22.8255C30.5691 21.421 31.6227 19.331 31.6227 16.9973C31.6227 14.6634 30.5691 12.5735 28.9072 11.169C30.2569 10.0283 32.0076 9.33963 33.9207 9.33963C38.1888 9.33963 41.6497 12.7681 41.6497 16.9973C41.6497 21.2264 38.1888 24.6549 33.9207 24.6549C32.0076 24.6549 30.2569 23.9661 28.9072 22.8255Z" fill="#F9A000"/>
<rect x="0.665039" y="0.5" width="56.4849" height="33" rx="3.5" stroke="white" stroke-opacity="0.04"/>
</svg>
