<svg width="99" height="34" viewBox="0 0 99 34" fill="none" xmlns="http://www.w3.org/2000/svg">
<rect x="0.0185547" width="98.0374" height="34" rx="4" fill="white" fill-opacity="0.08"/>
<path d="M23.8652 12.756C26.8656 12.756 29.2414 15.1247 29.2414 18.0951C29.2414 21.0749 26.8561 23.4343 23.8652 23.4343C20.8647 23.4343 18.489 21.0655 18.489 18.0951C18.489 15.1153 20.8742 12.756 23.8652 12.756ZM23.8652 10.218C19.5491 10.218 16.0186 13.7148 16.0186 18.0105C16.0186 22.2968 19.5491 25.8029 23.8652 25.8029C28.1813 25.8029 31.7117 22.2968 31.7117 18.0105C31.7117 13.7148 28.1907 10.218 23.8652 10.218ZM31.0113 9.86083V10.3872H31.5414V9.86083H31.0113ZM32.6867 9.24984V9.77622H33.2167V9.24984H32.6867ZM32.6867 8.19705V8.72344H33.2167V8.19705H32.6867Z" fill="#FDB511"/>
<path d="M26.0693 14.1546C24.659 15.9029 24.3087 16.6926 23.6841 18.1777C23.0688 16.8618 22.2738 15.9875 20.9486 15.3766C20.6836 15.292 20.5984 15.292 20.4186 15.5552C20.2388 15.8184 20.3334 15.9969 20.5984 16.2602C21.1285 16.9651 21.7437 17.5762 22.1886 18.2717C22.7186 19.1459 23.2487 20.6405 23.5137 20.9883C23.6935 21.2515 24.0437 21.4301 24.2236 21.4301C25.0186 21.3455 25.0186 20.9037 25.189 20.2081C25.4541 19.0707 25.8043 17.8393 27.3093 16.4388V14.2486H26.0788V14.1546H26.0693ZM80.0301 22.2103C79.1499 22.2103 78.44 21.947 78.0045 21.4206C77.5597 20.8943 77.2947 20.1987 77.2947 19.3151C77.2947 18.4315 77.5597 17.7359 78.0045 17.2095C78.4495 16.6832 79.1499 16.3354 80.0301 16.3354C80.8252 16.3354 81.4404 16.514 81.8853 16.9463L81.1754 18.0837C80.9956 17.9051 80.8252 17.8205 80.6454 17.8205C80.4656 17.7359 80.2952 17.7359 80.1153 17.7359C79.4055 17.7359 79.0552 18.2623 79.0552 19.3151C79.0552 20.3679 79.4055 20.8943 80.1153 20.8943C80.4656 20.8943 80.8252 20.7157 81.2606 20.4525L82.0557 21.5053C81.4404 21.947 80.8252 22.2103 80.0301 22.2103ZM73.0638 18.7887H74.8243C74.8243 17.9145 74.5592 17.4727 74.0292 17.4727C73.7642 17.4727 73.5844 17.5573 73.414 17.7359C73.1584 18.0085 73.0638 18.3563 73.0638 18.7887ZM73.0638 19.7569C73.0638 20.1047 73.2436 20.4619 73.414 20.6311C73.5939 20.8097 73.8588 20.8943 74.209 20.8943C74.3889 20.8943 74.5592 20.8943 74.8243 20.8097C75.0041 20.7251 75.1745 20.7251 75.2691 20.6311C75.3543 20.5465 75.5342 20.5465 75.714 20.3679L76.3293 21.4206C76.0642 21.5992 75.8844 21.6839 75.714 21.7684C75.5342 21.8531 75.3638 21.947 75.0041 22.0317C74.7391 22.1162 74.3889 22.1162 74.0387 22.1162C73.2436 22.1162 72.5432 21.8531 72.0132 21.3267C71.4831 20.8003 71.3032 20.1047 71.3032 19.2211C71.3032 18.3375 71.5683 17.6419 72.0132 17.0309C72.458 16.5046 73.1584 16.1568 73.9535 16.1568C74.8338 16.1568 75.449 16.4199 75.8087 17.0309C76.2535 17.5573 76.4239 18.3469 76.4239 19.2211V19.6629L73.0638 19.7569ZM67.6024 17.5667H66.8073V16.4293H67.6875L67.9526 14.8502H69.2777V16.4293H70.5082V17.5667H69.2777V20.2833C69.2777 20.5465 69.2778 20.7251 69.3629 20.8097C69.4481 20.8943 69.628 20.9883 69.8929 20.9883C70.0728 20.9883 70.2431 20.9883 70.5082 20.9037L70.688 22.0411C70.2431 22.2197 69.8078 22.2197 69.4576 22.2197C68.2271 22.2197 67.697 21.6087 67.697 20.3773V17.5667H67.6024ZM60.9862 22.1162V16.514H62.0464L62.3966 17.3881C63.0118 16.6832 63.627 16.4293 64.3369 16.4293C65.397 16.4293 65.927 17.1343 65.927 18.5349V22.2103H64.2517V18.4409C64.2517 17.9991 64.0718 17.7359 63.7216 17.7359C63.3714 17.7359 63.0118 17.9145 62.7563 18.1777V22.1162H60.9862ZM57.9858 20.7157V19.4937C57.2759 19.6723 56.8405 19.7569 56.6606 19.9354C56.5755 20.0201 56.4808 20.1987 56.4808 20.3773C56.4808 20.819 56.6606 20.9883 57.0961 20.9883C57.4652 21.0729 57.7302 20.8943 57.9858 20.7157ZM57.9858 18.5349V18.3563C57.9858 18.0931 57.9006 17.9145 57.806 17.8299C57.7207 17.7453 57.5409 17.6513 57.1907 17.6513C56.7459 17.6513 56.2253 17.8299 55.6006 18.0931L55.0705 17.0404C55.7804 16.5985 56.566 16.4293 57.3611 16.4293C58.1562 16.4293 58.6862 16.6079 59.0364 16.9557C59.3866 17.3035 59.6517 17.8299 59.6517 18.5349V22.2103H58.5916C58.4117 21.7684 58.3265 21.5992 58.3265 21.5992C57.7965 22.0411 57.2665 22.3042 56.6512 22.3042C56.1211 22.3042 55.6858 22.1256 55.4207 21.8625C55.0705 21.5992 54.8907 21.1575 54.8907 20.6405C54.8907 20.0295 55.0705 19.5877 55.506 19.3245C55.9602 18.8827 56.7553 18.7041 57.9858 18.5349ZM50.4988 17.219C51.0289 16.6079 51.6441 16.3447 52.2594 16.3447C52.8746 16.3447 53.2248 16.5233 53.4899 16.9557C53.7548 17.3035 53.8401 17.8299 53.8401 18.4409V22.1162H52.1647V18.3469C52.1647 17.9051 51.9849 17.6419 51.6347 17.6419C51.3697 17.6419 51.0194 17.8205 50.6692 18.0837V22.0222H48.9939V18.2529C48.9939 17.8112 48.8141 17.5479 48.4639 17.5479C48.1137 17.5479 47.8486 17.7265 47.4984 17.9898V21.9283H45.9083V16.3447H46.9684L47.3186 17.219C47.9338 16.514 48.549 16.2602 49.1738 16.2602C49.7889 16.3447 50.2338 16.6079 50.4988 17.219ZM41.8571 22.3794L39.737 16.4293H41.4975L42.5576 20.5465L43.4378 16.4293H45.028L43.3527 22.1256C43.0025 23.4416 42.1222 24.1372 40.8823 24.1372C40.6172 24.1372 40.267 24.1372 39.9168 24.0527L40.0966 22.9152H40.6267C40.8918 22.9152 41.1567 22.8306 41.3366 22.7366C41.5922 22.7366 41.6773 22.558 41.8571 22.3794ZM36.3011 22.2103C35.1558 22.2103 34.181 21.947 33.4805 21.3361L34.1904 20.114C34.8056 20.5559 35.5155 20.7251 36.3106 20.7251C36.6608 20.7251 37.0205 20.6405 37.1908 20.5465C37.3707 20.3679 37.541 20.1987 37.541 19.9354V19.7569L37.4559 19.5783L37.3707 19.3997C37.3707 19.3997 37.2855 19.3151 37.1908 19.3151C37.0962 19.3151 37.011 19.2305 37.011 19.2305C36.9259 19.2305 36.8312 19.1459 36.746 19.1459C36.6608 19.1459 36.5661 19.0613 36.481 19.0613C36.3958 19.0613 36.3011 18.9767 36.1308 18.9767C35.9509 18.8921 35.8657 18.8921 35.7805 18.8921C35.5155 18.8075 35.2505 18.7135 35.0707 18.6289C34.8908 18.5443 34.7205 18.3657 34.4554 18.1871C34.2756 18.0085 34.1052 17.8393 34.0106 17.5762C33.9254 17.3129 33.8308 16.9651 33.8308 16.7019C33.8308 15.9969 34.0957 15.48 34.5406 15.1228C34.9854 14.775 35.6858 14.5118 36.481 14.5118C37.4464 14.5118 38.2415 14.6904 38.7715 15.0382L38.2415 16.2602C37.7114 15.9969 37.0962 15.9123 36.5661 15.9123C35.7711 15.9123 35.4209 16.1755 35.4209 16.6174C35.4209 16.7019 35.4209 16.796 35.506 16.8805C35.506 16.9651 35.5913 17.0591 35.6858 17.0591C35.7711 17.1437 35.8657 17.1437 35.9509 17.2377C36.1308 17.3223 36.2159 17.3223 36.3011 17.3223C36.3863 17.3223 36.5661 17.4069 36.746 17.5009C36.8312 17.5009 36.9259 17.5855 36.9259 17.5855C37.1908 17.6701 37.3707 17.7641 37.541 17.8487C37.7209 17.9333 37.8912 18.0273 38.1563 18.1965C38.3362 18.2811 38.6011 18.4597 38.6864 18.6383C38.8662 18.8169 38.9513 18.9861 39.0366 19.2493C39.1217 19.5125 39.2164 19.7757 39.2164 20.1235C39.2164 20.8284 38.9513 21.3455 38.5065 21.7873C37.8912 22.0317 37.1814 22.2103 36.3011 22.2103Z" fill="#F2F6F9"/>
<path d="M29.951 10.9102V10.3838H29.4209V10.9102H29.951ZM29.951 11.4366H30.4811V10.9102H29.951V11.4366ZM31.0112 11.4366H30.4811V11.963H29.951V11.4366H28.8909V11.963H28.2757V12.4893H28.8058V13.0157H28.2757V12.5739H27.7457V13.1003H27.2156V13.6267H26.6855V15.8169H27.7457V15.2905H28.2757V14.7641H28.8058V14.2377H28.2757V13.7113H28.8058V14.2377H29.3358V13.7113H29.8658V13.1003H30.3959V12.5739H30.9259V11.4366H31.0112ZM31.6263 10.9102H32.1564V10.3838H31.6263V10.9102ZM31.0112 10.9102V11.4366H31.5412V10.9102H31.0112ZM31.0112 9.85738H30.4811V10.9102H31.0112V9.85738ZM32.1564 9.2464H31.0963V9.77279H32.1564V9.2464ZM32.1564 8.72V9.2464H32.6864V8.72H32.1564Z" fill="#F2F6F9"/>
<rect x="0.518555" y="0.5" width="97.0374" height="33" rx="3.5" stroke="white" stroke-opacity="0.04"/>
</svg>
