<svg width="61" height="34" viewBox="0 0 61 34" fill="none" xmlns="http://www.w3.org/2000/svg">
<rect x="0.382812" width="59.7819" height="34" rx="4" fill="white" fill-opacity="0.08"/>
<path fill-rule="evenodd" clip-rule="evenodd" d="M23.3285 21.2705H20.9242L19.1213 14.5415C19.0356 14.232 18.8539 13.9583 18.5867 13.8294C17.9197 13.5053 17.1846 13.2474 16.3828 13.1172V12.8582H20.256C20.7906 12.8582 21.1915 13.2474 21.2583 13.6993L22.1938 18.5531L24.597 12.8582H26.9346L23.3285 21.2705ZM28.2708 21.2705H26L27.8698 12.8582H30.1406L28.2708 21.2705ZM33.0771 15.1875C33.1439 14.7345 33.5449 14.4754 34.0126 14.4754C34.7476 14.4103 35.5483 14.5404 36.2165 14.8634L36.6174 13.0521C35.9493 12.7931 35.2142 12.6631 34.5472 12.6631C32.3433 12.6631 30.7396 13.8283 30.7396 15.4454C30.7396 16.6757 31.8755 17.3217 32.6774 17.7109C33.5449 18.099 33.879 18.358 33.8121 18.746C33.8121 19.328 33.1439 19.5872 32.4769 19.5872C31.6751 19.5872 30.8732 19.3931 30.1393 19.069L29.7385 20.8813C30.5403 21.2043 31.4078 21.3345 32.2096 21.3345C34.6808 21.3984 36.2165 20.2342 36.2165 18.4869C36.2165 16.2866 33.0771 16.1576 33.0771 15.1875ZM44.1647 21.2705L42.3618 12.8582H40.4251C40.0242 12.8582 39.6233 13.1172 39.4896 13.5053L36.151 21.2705H38.4885L38.955 20.0413H41.8272L42.0945 21.2705H44.1647ZM40.7585 15.1224L41.4256 18.2929H39.5558L40.7585 15.1224Z" fill="#283FA5"/>
<rect x="0.882812" y="0.5" width="58.7819" height="33" rx="3.5" stroke="white" stroke-opacity="0.04"/>
</svg>
