<svg width="27" height="20" viewBox="0 0 27 20" fill="none" xmlns="http://www.w3.org/2000/svg">
<g clip-path="url(#clip0_1_62)">
<path fill-rule="evenodd" clip-rule="evenodd" d="M0 0H26.6667V20H0V0Z" fill="#229E45"/>
<path fill-rule="evenodd" clip-rule="evenodd" d="M13.3917 18.1667L25.9542 10.0125L13.3167 1.83334L0.712502 10.0292L13.3917 18.1667Z" fill="#F8E509"/>
<path fill-rule="evenodd" clip-rule="evenodd" d="M18.8667 10C18.8667 12.9292 16.4875 15.3042 13.55 15.3042C12.5003 15.3025 11.4746 14.9897 10.6027 14.4052C9.73075 13.8207 9.05166 12.9909 8.65129 12.0205C8.25091 11.0502 8.14722 9.98288 8.35333 8.9536C8.55943 7.92432 9.06607 6.97925 9.8092 6.23787C10.5523 5.49649 11.4986 4.99207 12.5283 4.78839C13.5581 4.58472 14.6251 4.69092 15.5946 5.09358C16.564 5.49623 17.3922 6.17727 17.9747 7.05059C18.5571 7.9239 18.8675 8.95029 18.8667 10V10Z" fill="#2B49A3"/>
<path fill-rule="evenodd" clip-rule="evenodd" d="M11.8042 13.1792L11.6375 13.0833L11.4708 13.1667L11.5083 12.9792L11.375 12.8375L11.5625 12.8167L11.6542 12.65L11.7333 12.825L11.9167 12.8583L11.7792 12.9833M15.3625 14.0792L15.2 13.9833L15.0333 14.0667L15.0667 13.8792L14.9375 13.7417L15.125 13.7208L15.2125 13.55L15.2958 13.725L15.4792 13.7583L15.3375 13.8875M13.8292 12.6375L13.6875 12.5542L13.5417 12.6292L13.575 12.4667L13.4583 12.3458L13.625 12.3292L13.7 12.1792L13.7667 12.3333L13.9292 12.3625L13.8042 12.475M17.4292 12.1208L17.2875 12.0375L17.1417 12.1125L17.175 11.95L17.0625 11.8333L17.225 11.8167L17.3 11.6708L17.3667 11.8208L17.525 11.85L17.4042 11.9583M13.7667 11.0417L13.6 10.95L13.4333 11.0333L13.4667 10.8417L13.3375 10.7042L13.525 10.6833L13.6125 10.5125L13.6958 10.6875L13.8792 10.7208L13.7375 10.8542M9.37917 9.39583L9.2125 9.30417L9.04583 9.3875L9.0875 9.19583L8.95 9.05833L9.14167 9.0375L9.225 8.86667L9.30833 9.04167L9.49167 9.075L9.35417 9.20417M9.90833 11.5875L9.74167 11.4917L9.575 11.575L9.6125 11.3875L9.47917 11.25L9.66667 11.225L9.75417 11.0583L9.8375 11.2333L10.0208 11.2667L9.88333 11.3958M15.3833 8.59167L15.2333 8.50833L15.0833 8.58333L15.1167 8.41667L15 8.29167L15.1667 8.27083L15.2458 8.12083L15.3167 8.27917L15.4833 8.30833L15.3583 8.42083M15.0792 10.0167L14.9667 9.95L14.8458 10.0083L14.8708 9.875L14.7792 9.77917L14.9125 9.7625L14.975 9.64583L15.0292 9.77083L15.1542 9.79167L15.0625 9.88333M9.1375 11.9833L9.025 11.9208L8.9125 11.975L8.9375 11.85L8.85 11.7583L8.975 11.7417L9.03333 11.6292L9.0875 11.7458L9.2125 11.7708L9.11667 11.8542M17.4583 12.4917L17.3667 12.4458L17.275 12.4875L17.2958 12.3917L17.225 12.325L17.325 12.3125L17.375 12.2292L17.4167 12.3125L17.5208 12.3333L17.4417 12.3958" fill="#FFFFEF"/>
<path fill-rule="evenodd" clip-rule="evenodd" d="M9.1375 11.9833L9.025 11.9208L8.9125 11.975L8.9375 11.85L8.85 11.7583L8.975 11.7417L9.03333 11.6292L9.0875 11.7458L9.2125 11.7708L9.11667 11.8542" fill="#FFFFEF"/>
<path fill-rule="evenodd" clip-rule="evenodd" d="M9.1375 11.9833L9.025 11.9208L8.9125 11.975L8.9375 11.85L8.85 11.7583L8.975 11.7417L9.03333 11.6292L9.0875 11.7458L9.2125 11.7708L9.11667 11.8542M10.8792 11.9792L10.7708 11.9208L10.6583 11.975L10.6833 11.85L10.5958 11.7583L10.7208 11.7417L10.7792 11.6292L10.8333 11.7458L10.9583 11.7667L10.8625 11.8542M10.6625 12.5625L10.5542 12.5L10.4417 12.5583L10.4667 12.4333L10.3792 12.3375L10.5042 12.3208L10.5625 12.2083L10.6167 12.325L10.7417 12.35L10.6458 12.4333M14.2875 11.5083L14.1792 11.4417L14.0625 11.5L14.0875 11.375L14.0042 11.2792L14.1292 11.2667L14.1875 11.1542L14.2375 11.2708L14.3625 11.2917L14.2708 11.3792M13.225 11.5042L13.1125 11.4417L13 11.5L13.025 11.375L12.9417 11.2792L13.0667 11.2667L13.125 11.15L13.175 11.2708L13.3 11.2917L13.2083 11.3792M10.3417 11.1375L10.2708 11.0958L10.2 11.1292L10.2167 11.05L10.1625 10.9917L10.2417 10.9833L10.275 10.9125L10.3083 10.9875L10.3875 11L10.3292 11.0542M17.3208 12.9458L17.2125 12.8833L17.1 12.9417L17.125 12.8167L17.0375 12.7208L17.1625 12.7042L17.2208 12.5917L17.275 12.7083L17.4 12.7333L17.3042 12.8167M16.4375 13.0667L16.3458 13.0083L16.25 13.0583L16.2708 12.95L16.2 12.875L16.3042 12.8625L16.3542 12.7667L16.3958 12.8667L16.5 12.8833L16.4208 12.9583M16.8542 13.0542L16.7708 13.0042L16.6833 13.0458L16.7 12.95L16.6333 12.8792L16.7292 12.8667L16.775 12.7833L16.8167 12.8667L16.9125 12.8875L16.8417 12.9542M18.0542 12.0042L17.9708 11.9625L17.8875 12.0042L17.9083 11.9083L17.8417 11.8375L17.9375 11.825L17.9792 11.7417L18.0208 11.8292L18.1083 11.8458L18.0417 11.9125M16.425 13.6542L16.3208 13.5958L16.2083 13.6458L16.2333 13.5292L16.15 13.4458L16.275 13.4333L16.3292 13.3292L16.3792 13.4375L16.5042 13.4583L16.4083 13.5375M16.4333 14.1292L16.3333 14.0708L16.2333 14.125L16.2583 14.0083L16.1792 13.925L16.2917 13.9083L16.3417 13.8042L16.3875 13.9125L16.5 13.9333L16.4167 14.0167M15.625 13.0542L15.5458 13.0042L15.4625 13.0458L15.4792 12.9542L15.4167 12.8833L15.5083 12.875L15.55 12.7917L15.5917 12.875L15.6833 12.8917L15.6167 12.9583M14.875 13.0542L14.7917 13.0042L14.7083 13.0458L14.7292 12.9542L14.6625 12.8833L14.7583 12.875L14.8 12.7917L14.8417 12.875L14.9292 12.8917L14.8625 12.9583M13.5958 11.9333L13.5125 11.8875L13.4292 11.9292L13.45 11.8333L13.3833 11.7667L13.475 11.7542L13.5167 11.6708L13.5583 11.7542L13.65 11.775L13.5833 11.8375M13.7375 14.2125L13.6708 14.175L13.5958 14.2125L13.6125 14.1292L13.5583 14.0708L13.6375 14.0625L13.675 13.9917L13.7083 14.0667L13.7875 14.0792L13.7292 14.1333M11.8042 10.525L11.6375 10.4292L11.4708 10.5125L11.5083 10.325L11.375 10.1875L11.5625 10.1625L11.6542 9.99583L11.7333 10.1708L11.9167 10.2042L11.7792 10.3333" fill="#FFFFEF"/>
<path fill-rule="evenodd" clip-rule="evenodd" d="M18.5167 11.9083C18.6199 11.6405 18.7007 11.3645 18.7583 11.0833C15.9333 8.60416 12.7875 7.33333 8.8125 7.59583C8.66833 7.87479 8.54979 8.16627 8.45833 8.46666C13.1667 8.01666 16.625 10.1 18.5167 11.9083Z" fill="white"/>
<path d="M17.25 10.5167L17.3458 10.5708C17.3315 10.5991 17.3271 10.6314 17.3333 10.6625C17.3431 10.6927 17.3639 10.718 17.3917 10.7333C17.4208 10.7542 17.45 10.7667 17.475 10.7625C17.5 10.7625 17.5167 10.75 17.5292 10.7333C17.5364 10.7223 17.5394 10.7089 17.5375 10.6958C17.5341 10.6804 17.5269 10.6661 17.5167 10.6542C17.5083 10.6417 17.4875 10.6125 17.4542 10.5792C17.4199 10.5438 17.3942 10.501 17.3792 10.4542C17.3688 10.4187 17.3715 10.3807 17.3868 10.347C17.4021 10.3134 17.4289 10.2863 17.4625 10.2708C17.4928 10.2582 17.5263 10.2553 17.5583 10.2625C17.5975 10.2715 17.6344 10.2885 17.6667 10.3125C17.725 10.3542 17.7625 10.3958 17.775 10.4458C17.7808 10.4692 17.7815 10.4936 17.7772 10.5173C17.7729 10.541 17.7636 10.5635 17.75 10.5833L17.65 10.5208C17.6625 10.4958 17.6667 10.4708 17.6583 10.45C17.6542 10.4292 17.6375 10.4083 17.6083 10.3917C17.5869 10.3745 17.5607 10.3643 17.5333 10.3625C17.5258 10.3622 17.5183 10.364 17.5117 10.3677C17.5051 10.3714 17.4996 10.3768 17.4958 10.3833C17.4875 10.3958 17.4875 10.4083 17.4917 10.425C17.4958 10.4417 17.5167 10.475 17.5583 10.5167C17.6 10.5583 17.625 10.5958 17.6417 10.6208C17.6565 10.6481 17.6633 10.6791 17.6611 10.7102C17.6588 10.7412 17.6478 10.7709 17.6292 10.7958C17.6097 10.8242 17.5821 10.8459 17.55 10.8583C17.5188 10.8727 17.4838 10.8771 17.45 10.8708C17.4125 10.8625 17.375 10.8458 17.3333 10.8167C17.2708 10.775 17.2333 10.7292 17.2208 10.6792C17.2073 10.6225 17.2162 10.5627 17.2458 10.5125L17.25 10.5167ZM16.7667 10.2L16.8708 10.2542C16.8579 10.2829 16.855 10.3152 16.8625 10.3458C16.8732 10.3744 16.8939 10.3981 16.9208 10.4125C16.9542 10.4333 16.9792 10.4417 17.0042 10.4375C17.0292 10.4375 17.0458 10.425 17.0583 10.4042C17.0647 10.3943 17.0676 10.3826 17.0667 10.3708C17.0667 10.3583 17.0583 10.3417 17.0458 10.3292C17.0245 10.3034 17.0023 10.2784 16.9792 10.2542C16.9333 10.2083 16.9042 10.1708 16.8958 10.1375C16.889 10.1161 16.887 10.0934 16.8899 10.0711C16.8927 10.0488 16.9005 10.0273 16.9125 10.0083C16.9283 9.98262 16.9516 9.96229 16.9792 9.95C17.0078 9.9368 17.0397 9.93245 17.0708 9.9375C17.1094 9.94399 17.1462 9.95816 17.1792 9.97917C17.2417 10.0208 17.2792 10.0625 17.2917 10.1083C17.2993 10.1318 17.3017 10.1565 17.2988 10.181C17.2959 10.2054 17.2878 10.229 17.275 10.25L17.1708 10.1917C17.1833 10.1625 17.1875 10.1417 17.1792 10.1208C17.1708 10.1 17.1542 10.0792 17.125 10.0625C17.1019 10.046 17.0742 10.0372 17.0458 10.0375C17.039 10.038 17.0324 10.0401 17.0266 10.0437C17.0207 10.0474 17.0159 10.0524 17.0125 10.0583C17.0042 10.0708 17.0042 10.0833 17.0083 10.1C17.0125 10.1167 17.0375 10.15 17.0792 10.1917C17.1208 10.2333 17.15 10.2667 17.1625 10.2917C17.1792 10.3178 17.1881 10.3482 17.1881 10.3792C17.1881 10.4102 17.1792 10.4405 17.1625 10.4667C17.1445 10.4957 17.1185 10.5189 17.0875 10.5333C17.0563 10.5477 17.0213 10.5521 16.9875 10.5458C16.9446 10.5386 16.9036 10.523 16.8667 10.5C16.8128 10.4713 16.7713 10.4239 16.75 10.3667C16.7339 10.311 16.7399 10.2513 16.7667 10.2V10.2ZM16.175 10.0417L16.4792 9.54167L16.8458 9.77083L16.7958 9.85417L16.5292 9.6875L16.4625 9.8L16.7125 9.95417L16.6583 10.0375L16.4083 9.88333L16.325 10.0208L16.6042 10.1875L16.5542 10.2708L16.1792 10.0417H16.175ZM15.3125 9.33333L15.3583 9.25L15.5833 9.3625L15.4792 9.57083C15.4458 9.57917 15.4042 9.58333 15.3542 9.57917C15.3062 9.57387 15.2595 9.55975 15.2167 9.5375C15.1662 9.51293 15.1231 9.47558 15.0917 9.42917C15.063 9.38604 15.0485 9.33509 15.05 9.28333C15.0521 9.22946 15.0664 9.17677 15.0917 9.12917C15.1167 9.07906 15.154 9.03607 15.2 9.00417C15.244 8.97371 15.2965 8.9577 15.35 8.95833C15.3917 8.95833 15.4333 8.97083 15.4833 9C15.55 9.02917 15.5917 9.07083 15.6125 9.11667C15.6342 9.16217 15.6386 9.21398 15.625 9.2625L15.5125 9.22917C15.5194 9.20126 15.5164 9.17183 15.5042 9.14583C15.4917 9.12083 15.4708 9.10417 15.4375 9.0875C15.4181 9.07641 15.3965 9.06956 15.3743 9.06741C15.352 9.06525 15.3295 9.06784 15.3083 9.075C15.2667 9.0875 15.2292 9.125 15.2 9.18333C15.1708 9.24167 15.1583 9.29583 15.1708 9.34167C15.1766 9.3634 15.187 9.38362 15.2014 9.40089C15.2158 9.41817 15.2338 9.43208 15.2542 9.44167C15.275 9.45417 15.3 9.4625 15.325 9.4625C15.3499 9.46627 15.3751 9.46627 15.4 9.4625L15.4333 9.39583L15.3125 9.33333V9.33333ZM11.5542 8.40417L11.6375 7.82083L11.8125 7.85L11.8583 8.25833L12.0208 7.88333L12.1958 7.90833L12.1125 8.48333L12 8.46667L12.0708 8.0125L11.8875 8.45L11.775 8.43333L11.7292 7.9625L11.6625 8.42083L11.5542 8.40417V8.40417ZM10.9667 8.33333L11.0208 7.75L11.45 7.79167L11.4417 7.89167L11.1292 7.8625L11.1167 7.9875L11.4083 8.01667L11.3958 8.11667L11.1042 8.0875L11.0917 8.24583L11.4167 8.275L11.4083 8.375L10.9667 8.33333V8.33333Z" fill="#309E3A"/>
<path d="M9.02083 7.97084C9.02083 7.90834 9.03333 7.8625 9.05 7.82084C9.06461 7.7912 9.08436 7.7644 9.10833 7.74167C9.1297 7.72012 9.15521 7.70311 9.18333 7.69167C9.225 7.67917 9.26666 7.67084 9.30833 7.67084C9.39583 7.67084 9.4625 7.70417 9.51666 7.75417C9.54245 7.78602 9.56162 7.82269 9.57307 7.86204C9.58452 7.90139 9.58801 7.94263 9.58333 7.98334C9.58333 8.075 9.55417 8.15 9.5 8.20417C9.47216 8.2299 9.43924 8.2495 9.40335 8.2617C9.36746 8.2739 9.32941 8.27843 9.29167 8.275C9.25442 8.27538 9.21749 8.26819 9.18311 8.25386C9.14873 8.23954 9.11762 8.21838 9.09167 8.19167C9.03982 8.1303 9.01435 8.05091 9.02083 7.97084V7.97084Z" fill="#309E3A"/>
<path d="M9.14167 7.97084C9.14167 8.03334 9.15417 8.08334 9.18333 8.12084C9.2125 8.15417 9.25 8.175 9.3 8.175C9.32163 8.17652 9.34333 8.17319 9.36351 8.16526C9.38369 8.15733 9.40185 8.145 9.41667 8.12917C9.44583 8.09584 9.45833 8.04584 9.4625 7.975C9.4625 7.90834 9.45417 7.85834 9.42083 7.825C9.40726 7.80821 9.39013 7.79464 9.37067 7.78527C9.35122 7.7759 9.32993 7.77097 9.30833 7.77084C9.28641 7.77014 9.26461 7.77425 9.24445 7.78289C9.22429 7.79153 9.20628 7.80448 9.19167 7.82084C9.15833 7.85417 9.14583 7.90417 9.14167 7.97084V7.97084Z" fill="#F7FFFF"/>
<path d="M9.70833 8.27083L9.71667 7.6875H9.96667C10.0292 7.6875 10.0708 7.69583 10.1 7.70833C10.1292 7.71667 10.15 7.7375 10.1667 7.7625C10.1833 7.7875 10.1917 7.82083 10.1917 7.85833C10.192 7.89842 10.1771 7.93713 10.15 7.96667C10.1192 7.99552 10.0796 8.01314 10.0375 8.01667L10.1 8.06667C10.1167 8.08333 10.1375 8.11667 10.1625 8.1625L10.2333 8.27917H10.0917L10.0083 8.14583L9.95 8.0625C9.9399 8.05104 9.92697 8.04242 9.9125 8.0375C9.89355 8.03197 9.87391 8.02917 9.85417 8.02917H9.82917V8.27083H9.70833V8.27083Z" fill="#309E3A"/>
<path d="M9.83333 7.9375H9.91667C9.975 7.9375 10.0125 7.9375 10.025 7.92917C10.0375 7.92917 10.05 7.91667 10.0583 7.90833C10.0667 7.9 10.0708 7.87917 10.0708 7.86667C10.0708 7.84167 10.0667 7.825 10.0542 7.81667C10.0458 7.80417 10.0292 7.79583 10.0125 7.79167H9.92917L9.83333 7.7875V7.93333V7.9375Z" fill="white"/>
<path d="M10.375 7.71667L10.5917 7.72917C10.6375 7.72917 10.675 7.73333 10.7 7.74167C10.7324 7.75343 10.7612 7.77356 10.7833 7.8C10.8073 7.82913 10.8244 7.86332 10.8333 7.9C10.8458 7.9375 10.85 7.98333 10.8458 8.0375C10.8458 8.08003 10.8388 8.12226 10.825 8.1625C10.8083 8.20417 10.7833 8.2375 10.7542 8.2625C10.7299 8.2825 10.7014 8.29675 10.6708 8.30417C10.6458 8.3125 10.6083 8.3125 10.5667 8.3125L10.3458 8.3L10.375 7.71667V7.71667Z" fill="#309E3A"/>
<path d="M10.4875 7.82083L10.4667 8.20833H10.625C10.6458 8.20833 10.6625 8.2 10.675 8.1875C10.6875 8.175 10.7 8.15833 10.7083 8.13333C10.7167 8.10833 10.725 8.07083 10.725 8.025L10.7208 7.92083C10.7149 7.89886 10.7034 7.87878 10.6875 7.8625C10.6737 7.84858 10.6564 7.83853 10.6375 7.83333C10.606 7.82632 10.5739 7.82213 10.5417 7.82083H10.4875V7.82083Z" fill="white"/>
<path d="M13.2333 8.75833L13.3708 8.19167L13.5542 8.23333L13.6875 8.275C13.7167 8.29167 13.7417 8.31667 13.7542 8.35417C13.7708 8.3875 13.7708 8.425 13.7625 8.47083C13.7542 8.50417 13.7417 8.53333 13.7208 8.55417C13.7056 8.57246 13.6864 8.58717 13.6648 8.59725C13.6432 8.60733 13.6197 8.61254 13.5958 8.6125C13.5667 8.6125 13.525 8.60417 13.4708 8.59167L13.4 8.57083L13.35 8.7875L13.2333 8.75833V8.75833Z" fill="#309E3A"/>
<path d="M13.4583 8.31667L13.425 8.475L13.4875 8.49167C13.5292 8.5 13.5625 8.50833 13.5792 8.50417C13.5954 8.50192 13.6105 8.4947 13.6224 8.48351C13.6344 8.47231 13.6425 8.4577 13.6458 8.44167C13.6458 8.42083 13.6458 8.40417 13.6375 8.3875C13.6284 8.37056 13.6136 8.35731 13.5958 8.35L13.5167 8.32917L13.4625 8.31667H13.4583Z" fill="white"/>
<path d="M13.775 8.92083L13.9708 8.37083L14.2 8.45417C14.2625 8.475 14.3 8.49583 14.325 8.5125C14.3458 8.53333 14.3625 8.55417 14.3667 8.5875C14.3708 8.62083 14.375 8.65 14.3667 8.68333C14.35 8.725 14.325 8.75417 14.2917 8.775C14.2583 8.79167 14.2167 8.79583 14.1667 8.7875C14.1833 8.80833 14.2 8.82917 14.2083 8.85417L14.2417 8.96667L14.2667 9.09583L14.1375 9.05L14.0958 8.9C14.0883 8.86608 14.0785 8.83268 14.0667 8.8C14.0611 8.78704 14.0526 8.7756 14.0417 8.76667C14.0333 8.75417 14.0167 8.74583 13.9875 8.7375L13.9667 8.72917L13.8833 8.9625L13.775 8.92083V8.92083Z" fill="#309E3A"/>
<path d="M14 8.64167L14.0792 8.67083C14.1333 8.69167 14.1667 8.7 14.1833 8.7C14.1958 8.7 14.2083 8.7 14.2208 8.6875C14.2333 8.67917 14.2417 8.66667 14.2458 8.65C14.2542 8.63333 14.2542 8.61667 14.2458 8.6C14.2397 8.58385 14.2278 8.57051 14.2125 8.5625L14.1292 8.53333L14.0458 8.50417L13.9958 8.64167H14Z" fill="white"/>
<path d="M14.4583 8.9C14.4727 8.85122 14.4968 8.80585 14.5292 8.76667C14.5502 8.74153 14.5756 8.72036 14.6042 8.70417C14.63 8.68958 14.6582 8.6797 14.6875 8.675C14.7292 8.675 14.7708 8.675 14.8167 8.69167C14.8539 8.70089 14.8888 8.71791 14.9189 8.74161C14.9491 8.76532 14.9739 8.79516 14.9917 8.82917C15.025 8.89584 15.025 8.975 15 9.06667C14.9794 9.14542 14.9285 9.21282 14.8583 9.25417C14.7958 9.29167 14.7208 9.29584 14.6417 9.27084C14.6045 9.26138 14.5698 9.24426 14.5396 9.22058C14.5095 9.1969 14.4846 9.16718 14.4667 9.13334C14.45 9.09691 14.4406 9.05754 14.4392 9.0175C14.4378 8.97746 14.4443 8.93753 14.4583 8.9V8.9Z" fill="#309E3A"/>
<path d="M14.575 8.93333C14.5583 8.99583 14.5542 9.05 14.575 9.09167C14.5958 9.13333 14.625 9.15833 14.6708 9.175C14.7125 9.1875 14.7542 9.18333 14.7958 9.15833C14.8375 9.1375 14.8625 9.09167 14.8833 9.025C14.9042 8.9625 14.9042 8.9125 14.8833 8.87083C14.8751 8.85107 14.8626 8.83335 14.8468 8.81895C14.8309 8.80455 14.8121 8.79381 14.7917 8.7875C14.7712 8.78042 14.7494 8.77788 14.7278 8.78003C14.7062 8.78219 14.6854 8.789 14.6667 8.8C14.625 8.825 14.5958 8.86667 14.575 8.93333V8.93333Z" fill="white"/>
<path d="M15.5958 9.7125L15.8625 9.19583L16.0833 9.30833C16.125 9.3283 16.163 9.35506 16.1958 9.3875C16.2167 9.40833 16.2292 9.43333 16.2292 9.46666C16.2292 9.5 16.2292 9.52916 16.2125 9.55833C16.1965 9.5958 16.1666 9.62564 16.1292 9.64166C16.0875 9.65 16.0458 9.65 16 9.63333C16.0167 9.65833 16.025 9.68333 16.0333 9.70416C16.0417 9.72916 16.0458 9.76666 16.05 9.82083L16.0583 9.95416L15.9333 9.89166L15.9167 9.7375C15.9147 9.70255 15.9105 9.66776 15.9042 9.63333C15.9013 9.61774 15.8941 9.60329 15.8833 9.59166L15.8333 9.5625L15.8125 9.55L15.7 9.76666L15.5958 9.7125V9.7125Z" fill="#309E3A"/>
<path d="M15.8542 9.46666L15.9333 9.50833C15.9833 9.53333 16.0167 9.54999 16.0292 9.54999C16.0417 9.54999 16.0583 9.54999 16.0708 9.54166C16.0833 9.53749 16.0917 9.52499 16.1 9.50833C16.1083 9.49166 16.1125 9.47499 16.1083 9.45833C16.1032 9.44174 16.093 9.42717 16.0792 9.41666C16.0548 9.40169 16.0298 9.38779 16.0042 9.37499L15.9208 9.33333L15.8542 9.46666V9.46666Z" fill="white"/>
<path d="M17.7542 10.7792C17.7811 10.7363 17.8166 10.6995 17.8583 10.6708C17.8864 10.6529 17.9174 10.6402 17.95 10.6333C17.9802 10.6272 18.0114 10.6272 18.0417 10.6333C18.0833 10.6417 18.1208 10.6583 18.1583 10.6833C18.1908 10.7035 18.2186 10.7303 18.2401 10.7618C18.2617 10.7934 18.2764 10.8291 18.2833 10.8667C18.2958 10.9375 18.275 11.0167 18.225 11.0958C18.1832 11.1647 18.1157 11.2141 18.0375 11.2333C18.0002 11.2414 17.9616 11.2415 17.9243 11.2336C17.8869 11.2257 17.8517 11.21 17.8208 11.1875C17.7884 11.1673 17.7605 11.1406 17.739 11.109C17.7175 11.0774 17.7028 11.0417 17.6958 11.0042C17.6833 10.9292 17.7042 10.8542 17.7542 10.7792Z" fill="#309E3A"/>
<path d="M17.8583 10.8458C17.8167 10.9 17.8042 10.95 17.8125 10.9958C17.8156 11.0169 17.8231 11.0371 17.8346 11.0551C17.8461 11.0731 17.8613 11.0884 17.8792 11.1C17.9208 11.1292 17.9625 11.1375 18.0042 11.125C18.0458 11.1125 18.0875 11.0833 18.125 11.025C18.1625 10.9667 18.1792 10.9167 18.1708 10.875C18.1667 10.8333 18.1417 10.7958 18.1042 10.7667C18.0667 10.7375 18.0208 10.7333 17.9792 10.7458C17.9375 10.7542 17.8958 10.7875 17.8542 10.8458H17.8583Z" fill="white"/>
<path d="M12.575 8.52084L12.6708 8.1125L12.9708 8.18334L12.9583 8.25L12.7375 8.2L12.7167 8.29167L12.9208 8.3375L12.9042 8.40834L12.7 8.35834L12.675 8.47084L12.9042 8.525L12.8875 8.59167L12.575 8.52084V8.52084Z" fill="#309E3A"/>
</g>
<defs>
<clipPath id="clip0_1_62">
<rect width="26.6667" height="20" fill="white"/>
</clipPath>
</defs>
</svg>
