<svg width="28" height="20" viewBox="0 0 28 20" fill="none" xmlns="http://www.w3.org/2000/svg">
<path d="M27.5683 1.53846C27.0293 0.622308 26.0377 0 24.8889 0H14V1.53846H27.5683ZM0 15.3846H28V16.9231H0V15.3846ZM14 9.23077H28V10.7692H14V9.23077ZM14 6.15385H28V7.69231H14V6.15385ZM0 12.3077H28V13.8462H0V12.3077ZM3.11111 20H24.8889C26.0377 20 27.0293 19.3777 27.5683 18.4615H0.431667C0.970667 19.3777 1.96233 20 3.11111 20ZM14 3.07692H28V4.61538H14V3.07692Z" fill="#B22334"/>
<path d="M0.0528889 17.4455C0.0661111 17.517 0.0808889 17.5885 0.0987778 17.6585C0.119 17.7362 0.143889 17.8109 0.170333 17.8862C0.239556 18.0855 0.323556 18.2778 0.429333 18.4578L0.431667 18.4616H27.5683L27.5699 18.4585C27.6749 18.2793 27.7589 18.087 27.8281 17.8885C27.8546 17.8124 27.8802 17.7362 27.9004 17.657C27.9183 17.5878 27.9331 17.517 27.9463 17.4455C27.9782 17.2762 28 17.1024 28 16.9232H0C0 17.1024 0.0217778 17.2755 0.0528889 17.4455ZM0 13.8462H28V15.3847H0V13.8462ZM0 10.7693V12.3078H28V10.7693H14H0ZM14 7.69239H28V9.23085H14V7.69239ZM14 4.61547H28V6.15393H14V4.61547ZM0 3.07701C0 2.89777 0.0233333 2.72547 0.0528889 2.5547C0.0217778 2.7247 0 2.89777 0 3.07701ZM0.431667 1.53854L0.429333 1.54239L0.431667 1.53854ZM0.0995556 2.34162C0.119 2.26316 0.146222 2.18854 0.171111 2.11316C0.144667 2.18854 0.119778 2.26393 0.0995556 2.34162ZM14 3.07701H28C28 2.89777 27.9782 2.72393 27.9463 2.55393C27.9331 2.48316 27.9191 2.41239 27.9004 2.34316C27.8794 2.26393 27.8546 2.18701 27.8273 2.11085C27.7581 1.91239 27.6741 1.72085 27.5691 1.54162C27.5699 1.54085 27.5691 1.53931 27.5683 1.53854H14V3.07701Z" fill="#EEEEEE"/>
<path d="M14 0H3.11111C1.393 0 0 1.37769 0 3.07692V10.7692H14V0Z" fill="#3C3B6E"/>
<path d="M1.55664 2.09704L2.03731 2.44242L1.85375 3.00011L2.33364 2.6555L2.81431 3.00011L2.63075 2.44242L3.11142 2.09704H2.5172L2.33364 1.53857L2.15086 2.09704H1.55664ZM3.1122 3.6355L3.59286 3.98088L3.40931 4.53857L3.8892 4.19396L4.36986 4.53857L4.18631 3.98088L4.66697 3.6355H4.07275L3.8892 3.07704L3.70642 3.6355H3.1122ZM6.22331 3.6355L6.70397 3.98088L6.52042 4.53857L7.00031 4.19396L7.48097 4.53857L7.29742 3.98088L7.77808 3.6355H7.18386L7.00031 3.07704L6.81753 3.6355H6.22331ZM9.33442 3.6355L9.81508 3.98088L9.63153 4.53857L10.1114 4.19396L10.5921 4.53857L10.4085 3.98088L10.8892 3.6355H10.295L10.1114 3.07704L9.92864 3.6355H9.33442ZM3.1122 6.71242L3.59286 7.0578L3.40931 7.6155L3.8892 7.27088L4.36986 7.6155L4.18631 7.0578L4.66697 6.71242H4.07275L3.8892 6.15396L3.70642 6.71242H3.1122ZM6.22331 6.71242L6.70397 7.0578L6.52042 7.6155L7.00031 7.27088L7.48097 7.6155L7.29742 7.0578L7.77808 6.71242H7.18386L7.00031 6.15396L6.81753 6.71242H6.22331ZM9.33442 6.71242L9.81508 7.0578L9.63153 7.6155L10.1114 7.27088L10.5921 7.6155L10.4085 7.0578L10.8892 6.71242H10.295L10.1114 6.15396L9.92864 6.71242H9.33442ZM4.66775 2.09704L5.14842 2.44242L4.96486 3.00011L5.44475 2.6555L5.92542 3.00011L5.74186 2.44242L6.22253 2.09704H5.62831L5.44475 1.53857L5.26197 2.09704H4.66775ZM7.77886 2.09704L8.25953 2.44242L8.07597 3.00011L8.55586 2.6555L9.03653 3.00011L8.85297 2.44242L9.33364 2.09704H8.73942L8.55586 1.53857L8.37308 2.09704H7.77886ZM10.89 2.09704L11.3706 2.44242L11.1871 3.00011L11.667 2.6555L12.1476 3.00011L11.9641 2.44242L12.4448 2.09704H11.8505L11.667 1.53857L11.4842 2.09704H10.89ZM1.55664 5.17396L2.03731 5.51934L1.85375 6.07704L2.33364 5.73242L2.81431 6.07704L2.63075 5.51934L3.11142 5.17396H2.5172L2.33364 4.6155L2.15086 5.17396H1.55664ZM4.96486 6.07704L5.44475 5.73242L5.92542 6.07704L5.74186 5.51934L6.22253 5.17396H5.62831L5.44475 4.6155L5.26197 5.17396H4.66775L5.14842 5.51934L4.96486 6.07704ZM7.77886 5.17396L8.25953 5.51934L8.07597 6.07704L8.55586 5.73242L9.03653 6.07704L8.85297 5.51934L9.33364 5.17396H8.73942L8.55586 4.6155L8.37308 5.17396H7.77886ZM10.89 5.17396L11.3706 5.51934L11.1871 6.07704L11.667 5.73242L12.1476 6.07704L11.9641 5.51934L12.4448 5.17396H11.8505L11.667 4.6155L11.4842 5.17396H10.89ZM1.55664 8.25088L2.03731 8.59627L1.85375 9.15396L2.33364 8.80934L2.81431 9.15396L2.63075 8.59627L3.11142 8.25088H2.5172L2.33364 7.69242L2.15086 8.25088H1.55664ZM4.96486 9.15396L5.44475 8.80934L5.92542 9.15396L5.74186 8.59627L6.22253 8.25088H5.62831L5.44475 7.69242L5.26197 8.25088H4.66775L5.14842 8.59627L4.96486 9.15396ZM7.77886 8.25088L8.25953 8.59627L8.07597 9.15396L8.55586 8.80934L9.03653 9.15396L8.85297 8.59627L9.33364 8.25088H8.73942L8.55586 7.69242L8.37308 8.25088H7.77886ZM10.89 8.25088L11.3706 8.59627L11.1871 9.15396L11.667 8.80934L12.1476 9.15396L11.9641 8.59627L12.4448 8.25088H11.8505L11.667 7.69242L11.4842 8.25088H10.89Z" fill="#F2F6F9"/>
</svg>
