<svg width="66" height="34" viewBox="0 0 66 34" fill="none" xmlns="http://www.w3.org/2000/svg">
<path d="M19.9909 12.8713L16.2666 21.1181H20.7251L21.2779 19.8032H22.5413L23.094 21.1181H28.0016V20.1145L28.4389 21.1181H30.9775L31.4148 20.0933V21.1181H41.6213L42.8624 19.8374L44.0244 21.1181L49.2666 21.1287L45.5306 17.0177L49.2666 12.8713H44.1057L42.8976 14.1283L41.7722 12.8713H30.6688L29.7154 14.9999L28.7396 12.8713H24.2903V13.8407L23.7954 12.8713H19.9909ZM20.8536 14.0423H23.0269L25.4973 19.6346V14.0423H27.878L29.7861 18.0519L31.5446 14.0423H33.9134V19.96H32.472L32.4603 15.323L30.3588 19.96H29.0694L26.9562 15.323V19.96H23.991L23.4288 18.6333H20.3916L19.8306 19.9588H18.2419L20.8536 14.0423ZM35.2322 14.0423H41.0933L42.8858 15.9799L44.7362 14.0423H46.5288L43.8051 17.0165L46.5288 19.9565H44.6549L42.8624 17.9964L41.0025 19.9565H35.2322V14.0423ZM21.9109 15.0436L20.9102 17.4069H22.9103L21.9109 15.0436ZM36.6795 15.2676V16.3479H39.8769V17.5519H36.6795V18.7312H40.2659L41.9324 16.9942L40.3367 15.2666H36.6795V15.2676Z" fill="#7E92A2"/>
</svg>
