<svg width="50" height="34" viewBox="0 0 50 34" fill="none" xmlns="http://www.w3.org/2000/svg">
<path fill-rule="evenodd" clip-rule="evenodd" d="M23.4649 24.2383H26.0993C30.2111 24.2383 33.4876 21.0285 33.6163 17.0634V17.0005C33.552 12.9724 30.2111 9.69965 26.0993 9.76258H23.1443C19.2254 9.88854 16.1418 13.1612 16.2705 17.0634C16.2705 20.9656 19.4817 24.1754 23.4649 24.2383ZM17.555 17.0011C17.555 13.7283 20.3169 11.022 23.6579 11.022C26.9988 11.022 29.7607 13.7283 29.7607 17.0011C29.7607 20.2738 26.9988 22.9801 23.6579 22.9801C20.3169 22.9801 17.555 20.2738 17.555 17.0011ZM24.6218 21.0289V13.0358C26.8701 13.6022 28.2833 15.8051 27.7054 18.0079C27.3205 19.5184 26.1635 20.6512 24.6218 21.0289ZM19.6747 15.9939C19.0968 18.1966 20.4456 20.4625 22.694 21.0289V13.0358C21.2165 13.4134 20.0596 14.5463 19.6747 15.9939Z" fill="#1B79BE"/>
</svg>
