<svg width="59" height="34" viewBox="0 0 59 34" fill="none" xmlns="http://www.w3.org/2000/svg">
<path fill-rule="evenodd" clip-rule="evenodd" d="M34.5371 24.6553C38.8059 24.6553 42.2656 21.2269 42.2656 16.9978C42.2656 12.7686 38.8059 9.34012 34.5371 9.34012C32.6227 9.34012 30.871 10.0298 29.521 11.1719C28.1717 10.0327 26.4223 9.34508 24.5106 9.34508C20.2421 9.34508 16.7817 12.7735 16.7817 17.0027C16.7817 21.2319 20.2421 24.6603 24.5106 24.6603C26.425 24.6603 28.1768 23.9707 29.5269 22.8286C30.876 23.9677 32.6254 24.6553 34.5371 24.6553Z" fill="#ED0006"/>
<path fill-rule="evenodd" clip-rule="evenodd" d="M29.5323 22.8207C31.1946 21.416 32.2486 19.3258 32.2486 16.9917C32.2486 14.6582 31.1952 12.5684 29.5337 11.1638C27.8714 12.5684 26.8174 14.6586 26.8174 16.9929C26.8174 19.3264 27.8709 21.416 29.5323 22.8207Z" fill="#FF603C"/>
<path fill-rule="evenodd" clip-rule="evenodd" d="M29.5244 22.8255C31.1863 21.421 32.2399 19.331 32.2399 16.9973C32.2399 14.6634 31.1863 12.5735 29.5244 11.169C30.8741 10.0283 32.6248 9.33963 34.5379 9.33963C38.806 9.33963 42.2669 12.7681 42.2669 16.9973C42.2669 21.2264 38.806 24.6549 34.5379 24.6549C32.6248 24.6549 30.8741 23.9661 29.5244 22.8255Z" fill="#F9A000"/>
</svg>
