<svg width="60" height="34" viewBox="0 0 60 34" fill="none" xmlns="http://www.w3.org/2000/svg">
<path fill-rule="evenodd" clip-rule="evenodd" d="M22.9457 21.2705H20.5414L18.7385 14.5415C18.6528 14.232 18.4711 13.9583 18.2039 13.8294C17.5369 13.5053 16.8018 13.2474 16 13.1172V12.8582H19.8732C20.4078 12.8582 20.8087 13.2474 20.8755 13.6993L21.811 18.5531L24.2142 12.8582H26.5518L22.9457 21.2705ZM27.888 21.2705H25.6172L27.487 12.8582H29.7578L27.888 21.2705ZM32.6943 15.1875C32.7611 14.7345 33.1621 14.4754 33.6298 14.4754C34.3648 14.4103 35.1655 14.5404 35.8337 14.8634L36.2346 13.0521C35.5665 12.7931 34.8314 12.6631 34.1644 12.6631C31.9605 12.6631 30.3568 13.8283 30.3568 15.4454C30.3568 16.6757 31.4927 17.3217 32.2946 17.7109C33.1621 18.099 33.4962 18.358 33.4293 18.746C33.4293 19.328 32.7611 19.5872 32.0941 19.5872C31.2923 19.5872 30.4904 19.3931 29.7565 19.069L29.3557 20.8813C30.1575 21.2043 31.025 21.3345 31.8268 21.3345C34.298 21.3984 35.8337 20.2342 35.8337 18.4869C35.8337 16.2866 32.6943 16.1576 32.6943 15.1875ZM43.7819 21.2705L41.979 12.8582H40.0423C39.6414 12.8582 39.2405 13.1172 39.1068 13.5053L35.7682 21.2705H38.1057L38.5722 20.0413H41.4444L41.7117 21.2705H43.7819ZM40.3757 15.1224L41.0428 18.2929H39.173L40.3757 15.1224Z" fill="#283FA5"/>
</svg>
